<?xml version="1.0" encoding="utf-8"?>
<!-- Generator: Adobe Illustrator 17.0.0, SVG Export Plug-In . SVG Version: 6.00 Build 0)  -->
<!DOCTYPE svg PUBLIC "-//W3C//DTD SVG 1.1//EN" "http://www.w3.org/Graphics/SVG/1.1/DTD/svg11.dtd">
<svg version="1.1" id="图层_1" xmlns="http://www.w3.org/2000/svg" xmlns:xlink="http://www.w3.org/1999/xlink" x="0px" y="0px"
	 width="26px" height="26px" viewBox="0 0 26 26" enable-background="new 0 0 26 26" xml:space="preserve">
<path opacity="0.5" fill="#FFFFFF" d="M14.935,13l10.253,10.253c0.586,0.586,0.586,1.535,0,2.121s-1.536,0.586-2.121,0
	L12.814,15.121L2.561,25.374c-0.586,0.586-1.535,0.586-2.121,0s-0.586-1.536,0-2.121L10.692,13L0.439,2.747
	c-0.586-0.586-0.586-1.535,0-2.121s1.536-0.586,2.121,0l10.253,10.253L23.067,0.626c0.586-0.586,1.535-0.586,2.121,0
	s0.586,1.536,0,2.121L14.935,13z"/>
</svg>
